<?xml version="1.0" standalone="yes"?>
<svg width="5632" height="2048">
<path style="fill:#2dcbcb; stroke:none;" d="M0 0L0 100L64 100.104L91 98L91 97L85 94L89.1698 66L92 3C87.1947 2.10852 77.3564 0.844482 75.4375 7.14429C74.3642 10.6678 77.0374 14.7448 75.2431 17.9814C73.4279 21.2557 69.0187 23.0646 66 25L66 32L71 31L69 33L69 34L74 39L64 36L64 37C68.0489 42.6173 61.4645 43.7216 57 43L58 40C52.0182 41.4524 40.9129 31.6544 39 26L28 27L23.4869 19.2955L20 6L22 7C17.4083 0.391357 7.28315 0 0 0z"/>
<path style="fill:#cc4ead; stroke:none;" d="M11 0L11 1L22 7L20 6L20 7L23.3225 19.7546L28 27L39 26C40.1788 31.8881 51.9685 42.599 58 40L57 43C61.1171 43.9438 69.8057 42.0754 64 37L64 36L74 39L69 34L69 33L71 31L66 32L66 25L75.9722 16.8256L77.4336 4.92358L93 0L11 0z"/>
<path style="fill:#2cfdfd; stroke:none;" d="M85 94C94.2493 99.3403 101.442 111.005 111.285 114.741C125.848 120.267 140.358 101.69 151.467 121.004C152.928 123.543 153.57 126.144 154 129C171.711 131.239 209.227 125.79 216 147L323.996 155.981L350 145L350 144C343.497 140.471 345.421 132.449 350 128L347 127L360 106C349.35 113.556 344.802 119.32 332 115L334 109L340 111L340 110L332 106L331 112L329 110L328 110L329 114L326 116L329 123C323.503 123.204 312.671 111.839 310 107L309 107L310 117L314 115L313 119L307 119L298 111L295 115L290 111L286 122L287 116C283.444 118.849 282.015 123.222 277 122L279 120L270 98L267 100L269 89L273 86C263.674 89.9434 268.597 96.8715 265.034 102.541C260.579 109.629 247.046 110.215 240 109L241 106L232 99L224 96L227 95L227 94L220 93L237 87L235 93L240 92L242 86L243 86L245 91L250 89L250 87L243 85L243 84L250 84C246.922 79.641 243.028 81.9708 241 86L231 83L230 86L223 85L228 82L228 81L225 80L225 82L222 81L223 77L219 79L220 83L215 77L210 74L213 72L207 73L205 68L206 68L207 70L210 67L206 66L213 64C210.698 56.4054 204.127 49.2472 200.424 42C196.529 34.3744 196.623 24.0533 192.427 17.1436C190.746 14.3739 187.602 13.7256 185.525 11.4321C182.63 8.23755 185.177 2.94263 180.851 0.858032C176.525 -1.22656 169.687 0 165 0L131 0L103 0C100.207 0.00012207 95.1683 -0.908447 93.179 1.60339C88.9752 6.91113 92.2488 22.4187 91.9606 29C91.0331 50.1836 90.7944 73.6838 85 94z"/>
<path style="fill:#cc4ead; stroke:none;" d="M181 0L181 1L186.279 12.6968L207 17.7184L221 14.0586L232 19L234 15L236 21L238 21L259 2C262.651 6.37671 266.113 18.2019 256 14L254 20C258.966 21.1375 265.177 28.0886 257.891 31.2584C252.345 33.6713 247.261 30.2272 242 29L246 32L246 33L236 39L238 42C233.447 41.816 228.577 38.4988 224.055 39.6041C217.055 41.3151 210.911 58.0773 213 64L206 66L210 67L206 68L205 68L207 73L213 72L210 74L215 77C214.938 80.7401 216.548 81.7871 220 83L219 79L223 77L222 81L224 82L225 82L225 80L228 81L228 82L223 85L230 86L231 83L241 86C243.729 82.3431 246.283 80.6343 250 84L243 84L243 85L250 87L250 89L245 91L243 86L242 86L240 92L235 93L237 87L220 93L227 94L227 95L224 96C226.51 98.8392 228.251 99.6963 232 99L241 106L240 109C246.74 110.823 261.81 109.655 265.713 102.541C269.036 96.4828 264.68 91.1663 273 86L269 89L267 100L270 98C271.114 106.764 272.722 113.605 279 120L277 122C282.163 123.738 283.824 119.601 287 116L286 122L290 111L295 115L298 111L307 119L313 119L314 115L310 117L309 107L310 107C311.717 112.168 323.506 124.036 329 123L326 116L329 114L328 110L329 110L331 112L332 106L340 110L340 111L334 109L332 115C343.044 121.028 351.621 114.42 360 106C358.407 109.678 352.074 115.828 352.903 119.941C354.153 126.148 365.717 119.898 369 119L372 124C366.503 141.757 395.221 126.448 402 125L401 122C406.807 119.71 412.422 117.497 414 111L400 109L412 92L413 92L412 95C415.139 94.6027 420.688 91.2249 415 90L415 89C423.402 88.9008 425.324 85.4868 420 79C429.808 81.7856 429.435 70.0814 438 69C439.084 57.8655 457.354 55.9954 466 56L465 59C478.375 66.4923 484.276 55.8071 495 49.6243C503.913 44.4858 523.593 38.6395 534 38.0432C546.024 37.3542 562.415 35.6597 574 39.0432C584.466 42.1 596.482 46.7114 605.714 52.5146C615.385 58.5935 622.662 66.9836 633 72.5116C646.54 79.752 661.071 82.9121 676 85.213C684.842 86.5758 699.337 102.535 707.645 99.3573C710.765 98.1641 710.475 94.3185 711.315 91.6752C713.697 84.1763 714.271 76.4299 716.278 68.804C720.428 53.0315 728.98 39.323 738.425 26.7646C741.884 22.1649 743.311 16.5588 748 13L749 6L758 0L181 0z"/>
<path style="fill:#cc524f; stroke:none;" d="M749 6L748 13C742.841 15.7058 741.649 21.7482 738.309 26.24C728.822 38.9995 719.707 53.0994 715.865 69.2855C713.774 78.0952 714.066 93.7841 707 100C712.178 113.928 727.257 111.468 739 112.04C758.936 113.011 779.996 118.332 799 124.667C831.449 135.483 866.415 142.077 900 147.674C910.047 149.349 921.183 148.198 931 150.532C942.393 153.241 953.323 159.001 965 161.482C982.256 165.148 999.804 166.871 1017 170.518C1028.98 173.058 1040.88 177.306 1053 178.815C1067.52 180.622 1082.39 177.324 1097 178.04C1104.19 178.392 1110.6 181 1118 181L1118 180C1111.38 178.634 1105.14 177.573 1102 171C1108.44 170.209 1110.59 171.979 1116 175L1118 169L1110 160C1117.1 158.009 1121.95 163.405 1126 169L1125 170L1120 169L1123 175L1119 177L1119 178L1123 182L1129 173C1129.15 190.103 1148.56 181.964 1160 184.529C1172.67 187.37 1184.31 184.386 1197 186.21C1203.13 187.091 1210.61 191.377 1216.91 188.651C1220.77 186.979 1223.14 182.782 1227 180.839C1232.27 178.192 1238.03 178.881 1243 175.28C1252.09 168.686 1257.74 159.288 1270 159C1267.43 154.437 1262.84 151.594 1260.28 147C1257.99 142.894 1259.1 138.372 1257.4 134.286C1255.92 130.748 1252.28 128.496 1250.57 125C1245.66 114.976 1241.38 100.843 1238.96 89.9607C1236.6 79.339 1245.13 69.6427 1241.26 60C1236.2 47.3656 1225.66 48.0306 1217.1 38.9607C1207.63 28.9132 1207 12.9802 1207 0L880 0L794 0C778.117 0 762.994 -2.28198 749 6z"/>
<path style="fill:#4c5020; stroke:none;" d="M1207 0C1207 12.7583 1207.21 28.778 1216.21 38.9607C1225 48.9026 1236.97 47.7135 1241.64 62C1243.77 68.5288 1238.38 74.4791 1238.04 81C1237.34 94.6361 1246.62 127.561 1259 134C1262.42 123.117 1274.67 117.359 1284 112.204C1293.51 106.953 1302.43 100.671 1312 95.4128C1321.05 90.4453 1331.58 84.8794 1329 73C1334.56 69.7634 1339.52 57.9891 1342 52L1340 52L1351 42L1346 39L1354 42L1355 39L1351 39L1356 35L1353 34L1353 33L1359 31L1362 33L1359 26L1373 23L1373 22L1364 17C1369.56 17.0006 1401.62 17.2389 1389.53 3.76465C1385.86 -0.322754 1379.98 0.00195312 1375 0L1342 0L1207 0z"/>
<path style="fill:#6ec9fb; stroke:none;" d="M1384 0L1384 1C1396.16 5.81262 1389.5 13.3304 1380.83 16.8009C1376.2 18.6573 1368.98 17 1364 17L1373 22L1373 23L1359 26L1362 33L1359 31L1353 33L1353 34L1356 35L1351 39L1355 39L1354 42L1346 39L1351 42L1340 52L1342 52L1329 73C1330.28 82.0415 1323.23 92.5485 1329 101L1329 102C1324.95 105.559 1328.79 112.739 1332.95 114.877C1337.17 117.041 1348.22 115.503 1353 115C1353.13 130.035 1366.31 140.999 1361 156C1368.65 153.536 1382.07 148.98 1390 150.329C1395.42 151.251 1399.76 154.884 1405 156.296C1409.98 157.638 1415.44 157.839 1420 160.498C1431.03 166.936 1437.75 177.096 1450 180.594C1453.9 181.709 1458.01 184.648 1462 182.353C1478.81 172.682 1491.42 153.094 1506 140.424C1511.37 135.758 1522.14 128.305 1523.66 121C1524.72 115.945 1520.1 110.955 1519.3 106C1517.49 94.7706 1512.61 84.8807 1509.49 74C1507.01 65.3038 1504.18 52.97 1497.78 46.1844C1490.37 38.3403 1479.04 34.8604 1471.22 27.4823C1464.23 20.8784 1463.82 6.07263 1455.66 1.02771C1450.82 -1.96558 1440.54 0 1435 0L1384 0z"/>
<path style="fill:#6fddfb; stroke:none;" d="M1456 0C1459.81 8.41504 1463.96 20.8292 1470.42 27.4823C1478.43 35.748 1491.34 38.8934 1498.58 48.0402C1507.33 59.0936 1509.7 75.9552 1513.8 88.9607C1517.13 99.5111 1523.65 111.904 1524 123L1603 135C1599.43 127.832 1587.84 120.295 1580 119L1582 117L1580 110L1585 111L1587 104L1594 99L1591 100L1592 93L1597 94L1596 91L1600 91L1598 87L1601 86L1601 85L1595 84C1597.17 80.7196 1596.37 78.8523 1593 77L1595 73L1592 72L1596 66L1591 68L1586 67L1596 47C1583.77 42.452 1582.03 24.2645 1579.5 13C1578.76 9.72913 1579.08 3.29089 1576.26 1.02771C1572.2 -2.23169 1560.03 0 1555 0C1534.76 0 1514.26 -0.875244 1494.02 0.0192871C1485.74 0.38501 1470.22 19.5353 1470 0L1456 0z"/>
<path style="fill:#4c4820; stroke:none;" d="M1470 0C1470.05 13.7351 1485.18 10.2566 1489 0L1470 0M1539 0L1539 1L1543 1L1539 0z"/>
<path style="fill:#70fbfb; stroke:none;" d="M1577 0C1578.66 8.82007 1578.8 30.2585 1587 35C1588.27 18.3344 1616.97 24.2319 1625 32C1630.53 30.2789 1633.91 29.881 1639 33C1649.38 27.2203 1656.12 26.5529 1666 32.3055C1669.62 34.4126 1672.78 34.2985 1673 39C1678.67 36.2141 1692.19 19.7902 1691.84 13.0393C1691.66 9.59045 1687.19 6.41724 1686 3L1681 3L1681 2L1692 1L1692 0L1610 0L1610 1L1612 2L1587 0L1587 1C1592.51 1.17871 1599.71 8.76855 1590.99 9.1095C1587.11 9.26111 1583.31 4.71423 1580 3L1580 2L1584 1L1577 0z"/>
<path style="fill:#4c4820; stroke:none;" d="M1580 2C1581.55 3.79285 1583.14 5.46838 1585.02 6.94519C1587.6 8.97449 1596.97 11.548 1595.94 5.00391C1594.95 -1.30322 1583.84 0.411377 1580 2M1603 0C1605.93 3.06714 1608.71 3.97754 1612 1L1603 0M1681 2L1681 3L1686 3C1688.73 16.2559 1711.36 18.2194 1722 18C1721.13 24.0292 1727.04 26.9897 1732 29.115C1739.08 32.1476 1746.69 32.2448 1754 34.4553C1761.98 36.8672 1769.5 41.953 1778 40L1778 32L1774 32L1771 29L1765 20L1762 21C1759.21 15.7286 1753.34 9.55566 1747 11C1732.51 -8.82251 1701.79 1.94043 1681 2z"/>
<path style="fill:#6bddfb; stroke:none;" d="M1736 0L1747 11C1753.36 10.402 1758.36 16.3221 1762 21L1765 20L1771 29L1774 32L1778 32C1775.19 35.114 1775.67 36.6373 1778 40L1774 41C1780.99 52.2201 1789.17 68.0789 1800.01 75.892C1812.77 85.0873 1833.24 87.7328 1848 93.0146C1878.85 104.052 1910.14 117.244 1942 125.24C1951.77 127.691 1957.09 120.813 1965 116.721C1978.42 109.782 1998.87 108.316 1993 89L2006 83L2006 82L1992 87L1995 83L1991 80L1991 79L1993 77L1991 77L1993 74L1987 77C1988.7 71.5042 1994.18 70.267 1999 68L1998 65L2018 65C2008.6 52.4811 1993.52 70.7529 1983 69L1984 65L1977 68L1976 63L1979 64L1982 59L1977 61C1982.99 55.5848 1992.46 63.3872 1998 55L1975 56L1975 55C1992.76 49.8694 2005.64 28.3884 2026 32L2026 31C2012.2 25.8689 2004.05 37.1339 1992.29 41.5757C1986.66 43.6986 1978.79 41.4573 1973 41L1973 40L1986 39L1986 38L1979 36C1978.45 31.62 1970.78 32.9537 1967 32L1968 30L1965 29C1971.31 23.043 1987.46 23.0796 1996 22L1996 21L1966 25C1971.24 10.0708 1994.91 10.9341 2007 14.0054C2013.31 15.6068 2019.6 21.2942 2026 17L2017 16L2027 13L2027 12L2010 12L2019 9L2019 8L2006 7L2011 7L2011 5L1965 0L1804 0L1807 6L1801 0L1800 0L1800 6L1792 1L1794 7L1791 6L1798 15L1789 14C1792.42 20.4807 1794.3 23.9303 1802 24C1799.62 27.8632 1797.25 27.7402 1793 27L1794 24L1786 21L1787 17L1783 18L1776 12L1775 12L1765 12L1765 6L1764 6L1764 9L1761 5L1750 0L1751 3L1736 0z"/>
<path style="fill:#4c4820; stroke:none;" d="M1747 0L1751 3L1747 0M1753 0C1754.89 3.49072 1757.01 5.14331 1761 5C1761.76 7.54053 1763.51 10.0419 1764 6L1765 6L1765 12L1775 12L1776 12L1783 18L1787 17L1786 21L1794 24L1793 27C1797.21 27.9907 1800.22 28.4187 1802 24C1794.28 23.8131 1793.2 19.6251 1789 14L1798 15L1791 6L1794 7L1792 1L1800 6L1800 0L1753 0M1801 0L1807 6L1804 0L1801 0z"/>
<path style="fill:#cb424f; stroke:none;" d="M1973 0L1973 1C1986.21 2.4259 1997.09 7.56091 2011 5L2011 7L2006 7C2009.19 11.907 2014.2 7.72156 2019 8L2019 9L2010 12L2027 12L2027 13C2022.71 12.2202 2019.38 11.9609 2017 16L2026 17C2018.61 20.2366 2014 15.2004 2007 13.652C1996.22 11.2689 1984.83 10.2628 1975 16.1659C1970.69 18.7573 1967.1 19.7375 1966 25L1996 21L1996 22C1988.64 22.5811 1969.36 22.9485 1965 29L1968 30L1967 32C1970.51 33.2844 1978.34 31.4865 1979 36L1986 38L1986 39L1973 40L1973 41C1978.88 41.7426 1987.28 43.7251 1993 41.6914C2005.2 37.3513 2011.78 27.1205 2026 31L2026 32C2006.76 27.4729 1991.16 48.223 1975 55L1975 56L1998 55L1977 61L1982 59L1979 64L1976 63L1977 68L1984 65L1983 69C1995.69 72.3005 2005.1 53.6345 2018 65C2010.56 63.4719 2005.45 62.6393 1998 65L1999 68C1993.9 69.7021 1988 71.1226 1987 77L1993 74L1991 77L1993 77L1991 79L1991 80L1995 83L1992 87L2006 82L2006 83L1993 89L1995 102L2009 88L2008 92L2026 85C2024.32 92.9861 2028.21 93.729 2033 99C2023.6 93.5697 2018.74 98.1931 2009.91 101.223C2006.77 102.301 2003.26 101.175 2000 102C2008.56 108.865 2019 95.8169 2027 104C2032.87 102.021 2040.22 94.5983 2047 96.5687C2056.01 99.1857 2055.08 111.884 2057.41 119C2063.7 138.196 2072.03 155.38 2085 171C2080.07 173.45 2074.45 178.161 2075 184L2084 177L2085 181L2080 184L2086 179L2089 183L2086 184L2086 185L2097 181L2094 180L2096 176L2088 179L2089 173L2093 171L2092 175L2098 176L2099 176L2100 176L2102 174C2099.22 179.399 2093.32 184.78 2095 191L2099 186L2100 186L2099 189L2103 187L2101 192L2112 184L2112 185L2103 196L2103 197L2113 189L2105 199L2105 201L2113 201L2117 205C2117.14 201.453 2116.31 200.274 2113 199L2113 198L2119 193L2120 193C2118.25 203.039 2125.94 204.509 2134 202L2134 201L2132 201L2132 200L2135 199L2132 197L2132 196L2135 195L2127 195L2128 192L2118 189L2118 188L2126 186L2132 191L2140 187L2131 184L2129 181L2129 180L2142 182L2142 181L2141 178L2129 177L2129 176L2136 176L2135 174L2142 174L2142 173L2133 172L2133 171L2145 170L2145 169L2143 166L2146 163L2136 166L2136 165L2141 164L2141 162L2138 159C2141.92 160.035 2145.45 161.891 2148 158L2143 157L2148 151L2146 147L2149 146L2149 145L2136 144L2136 143L2150 143L2146 143L2139 140L2144 137L2146 133L2145 139L2151 139L2151 138L2147 136L2147 135L2156 133L2160 131C2154.8 130.982 2151.88 130.61 2149 126L2157 129L2157 128L2151 126L2151 125L2159 128L2159 124L2160 124L2164 128L2164 127L2162 127L2162 126L2166 126C2163.22 122.991 2160.63 121.68 2157 124L2153 121L2153 119L2166 121C2166.4 117.984 2168.3 118.634 2171 119L2158 111L2174 115L2175 114L2171 107L2174 106L2174 104L2159 101L2159 99L2164 98L2164 99L2162 99L2162 100L2177 98L2177 96L2173 96L2174 93L2181 95L2169 84L2169 85L2174 91L2165 82L2167 80L2175 79L2176 82L2186 75L2186 71L2180 70L2181 67L2186 69L2190 65L2195 68L2194 64L2198 68L2203 67L2202 64L2207 64C2209.71 67.0769 2211.36 63.9364 2212 61L2207 56L2208 56C2208.88 57.6405 2211.09 60.2482 2211 57L2215 58L2215 50L2219 50L2219 49L2212 48L2212 47L2224 49L2217 55L2228 62L2228 55L2229 55L2229 61L2232 60L2232 63L2233 63L2233 58L2234 58L2234 62L2240 54L2239 61L2252 54L2247 45L2258 50L2258 46C2265.02 52.5449 2269.31 43.6239 2269 37L2274 40L2286 24L2283 21L2288 21L2289 14L2289 13L2305 9L2308 3C2302.87 -2.2356 2291.89 0 2285 0L2223 0L1973 0z"/>
<path style="fill:#67ddfb; stroke:none;" d="M2306 0L2308 2L2308 3L2305 9L2289 13L2289 14L2291 15L2288 21L2283 21L2286 24L2274 40L2269 37C2269.08 43.6968 2265.21 50.9757 2258 46L2258 50L2247 45L2252 54L2249 53C2247.19 55.1997 2244.11 57.7365 2245.33 60.9105C2247.01 65.3242 2254.1 68.4895 2258 70.5756C2268.22 76.0452 2277.94 82.422 2288 88.1697C2307.52 99.326 2326.69 111.237 2346 122.756C2353.76 127.388 2363.17 135.622 2372 137.606C2392.26 142.161 2415.82 129.598 2435 135L2434 131L2429 128L2440 132L2433 125L2434 124L2441 126L2441 125L2434 121L2441 123L2440 119L2440 118L2448 122L2453 121L2455 125L2452 126L2452 127L2457 127L2448 116L2456 116C2461.05 113.144 2465.83 117.455 2468 122L2472 121L2469 123L2469 124L2473 123C2473.74 128.767 2471.01 129.413 2466 128C2470.83 133.309 2475.2 135.059 2476 143L2477 143L2477 136L2479 137L2484 130L2488 135C2489.5 129.127 2486.49 121.399 2493 119C2494.85 123.689 2498.08 127.545 2503 129C2502.9 123.651 2506.51 114.875 2513.87 118.731C2518.21 121.006 2521.58 126.957 2524 131L2525 131C2515.97 89.9388 2515 42.5403 2515 0L2386 0L2352 0L2339 0L2338 0L2331 0L2332 3C2326.76 3 2317.05 3.8125 2318 0L2315 3L2306 0z"/>
</svg>
